<mxfile host="app.diagrams.net" modified="2024-03-10T20:43:18.379Z" agent="Mozilla/5.0 (Macintosh; Intel Mac OS X 10_15_7) AppleWebKit/537.36 (KHTML, like Gecko) Chrome/121.0.0.0 Safari/537.36" etag="E7vXIkSc5L9q-LTGwEbB" version="24.0.2" type="device">
  <diagram name="Page-1" id="AmXObnKs2CB7innRL1Mz">
    <mxGraphModel dx="2585" dy="1118" grid="1" gridSize="10" guides="1" tooltips="1" connect="1" arrows="1" fold="1" page="1" pageScale="1" pageWidth="850" pageHeight="1100" math="0" shadow="0">
      <root>
        <mxCell id="0" />
        <mxCell id="1" parent="0" />
        <mxCell id="yHE9qiVe5FLm9MRMypN1-16" value="1" style="edgeStyle=orthogonalEdgeStyle;rounded=0;orthogonalLoop=1;jettySize=auto;html=1;exitX=0.5;exitY=1;exitDx=0;exitDy=0;entryX=0.5;entryY=0;entryDx=0;entryDy=0;endArrow=none;endFill=0;" edge="1" parent="1" source="yHE9qiVe5FLm9MRMypN1-1" target="yHE9qiVe5FLm9MRMypN1-15">
          <mxGeometry relative="1" as="geometry" />
        </mxCell>
        <mxCell id="yHE9qiVe5FLm9MRMypN1-48" style="edgeStyle=orthogonalEdgeStyle;rounded=0;orthogonalLoop=1;jettySize=auto;html=1;exitX=1;exitY=0.5;exitDx=0;exitDy=0;entryX=0;entryY=0.5;entryDx=0;entryDy=0;endArrow=none;endFill=0;" edge="1" parent="1" source="yHE9qiVe5FLm9MRMypN1-1" target="yHE9qiVe5FLm9MRMypN1-47">
          <mxGeometry relative="1" as="geometry" />
        </mxCell>
        <mxCell id="yHE9qiVe5FLm9MRMypN1-56" value="1" style="edgeLabel;html=1;align=center;verticalAlign=middle;resizable=0;points=[];" vertex="1" connectable="0" parent="yHE9qiVe5FLm9MRMypN1-48">
          <mxGeometry x="0.4435" y="1" relative="1" as="geometry">
            <mxPoint as="offset" />
          </mxGeometry>
        </mxCell>
        <mxCell id="yHE9qiVe5FLm9MRMypN1-96" style="edgeStyle=orthogonalEdgeStyle;rounded=0;orthogonalLoop=1;jettySize=auto;html=1;exitX=0.75;exitY=1;exitDx=0;exitDy=0;entryX=0;entryY=0.5;entryDx=0;entryDy=0;endArrow=none;endFill=0;" edge="1" parent="1" source="yHE9qiVe5FLm9MRMypN1-1" target="yHE9qiVe5FLm9MRMypN1-95">
          <mxGeometry relative="1" as="geometry" />
        </mxCell>
        <mxCell id="yHE9qiVe5FLm9MRMypN1-97" value="1" style="edgeLabel;html=1;align=center;verticalAlign=middle;resizable=0;points=[];" vertex="1" connectable="0" parent="yHE9qiVe5FLm9MRMypN1-96">
          <mxGeometry x="0.1952" relative="1" as="geometry">
            <mxPoint as="offset" />
          </mxGeometry>
        </mxCell>
        <mxCell id="yHE9qiVe5FLm9MRMypN1-1" value="Пользователь" style="rounded=0;whiteSpace=wrap;html=1;" vertex="1" parent="1">
          <mxGeometry x="340" y="170" width="120" height="60" as="geometry" />
        </mxCell>
        <mxCell id="yHE9qiVe5FLm9MRMypN1-6" style="edgeStyle=orthogonalEdgeStyle;rounded=0;orthogonalLoop=1;jettySize=auto;html=1;exitX=0.5;exitY=1;exitDx=0;exitDy=0;entryX=0.5;entryY=0;entryDx=0;entryDy=0;endArrow=none;endFill=0;" edge="1" parent="1" source="yHE9qiVe5FLm9MRMypN1-2" target="yHE9qiVe5FLm9MRMypN1-1">
          <mxGeometry relative="1" as="geometry" />
        </mxCell>
        <mxCell id="yHE9qiVe5FLm9MRMypN1-2" value="ФИО" style="ellipse;whiteSpace=wrap;html=1;" vertex="1" parent="1">
          <mxGeometry x="90" y="30" width="120" height="80" as="geometry" />
        </mxCell>
        <mxCell id="yHE9qiVe5FLm9MRMypN1-7" style="edgeStyle=orthogonalEdgeStyle;rounded=0;orthogonalLoop=1;jettySize=auto;html=1;exitX=0.5;exitY=1;exitDx=0;exitDy=0;entryX=0.5;entryY=0;entryDx=0;entryDy=0;endArrow=none;endFill=0;" edge="1" parent="1" source="yHE9qiVe5FLm9MRMypN1-3" target="yHE9qiVe5FLm9MRMypN1-1">
          <mxGeometry relative="1" as="geometry" />
        </mxCell>
        <mxCell id="yHE9qiVe5FLm9MRMypN1-3" value="Почта" style="ellipse;whiteSpace=wrap;html=1;" vertex="1" parent="1">
          <mxGeometry x="260" y="30" width="120" height="80" as="geometry" />
        </mxCell>
        <mxCell id="yHE9qiVe5FLm9MRMypN1-8" style="edgeStyle=orthogonalEdgeStyle;rounded=0;orthogonalLoop=1;jettySize=auto;html=1;exitX=0.5;exitY=1;exitDx=0;exitDy=0;entryX=0.5;entryY=0;entryDx=0;entryDy=0;endArrow=none;endFill=0;" edge="1" parent="1" source="yHE9qiVe5FLm9MRMypN1-4" target="yHE9qiVe5FLm9MRMypN1-1">
          <mxGeometry relative="1" as="geometry" />
        </mxCell>
        <mxCell id="yHE9qiVe5FLm9MRMypN1-4" value="Номер телефона" style="ellipse;whiteSpace=wrap;html=1;" vertex="1" parent="1">
          <mxGeometry x="430" y="30" width="120" height="80" as="geometry" />
        </mxCell>
        <mxCell id="yHE9qiVe5FLm9MRMypN1-9" style="edgeStyle=orthogonalEdgeStyle;rounded=0;orthogonalLoop=1;jettySize=auto;html=1;exitX=0.5;exitY=1;exitDx=0;exitDy=0;entryX=0.5;entryY=0;entryDx=0;entryDy=0;endArrow=none;endFill=0;" edge="1" parent="1" source="yHE9qiVe5FLm9MRMypN1-5" target="yHE9qiVe5FLm9MRMypN1-1">
          <mxGeometry relative="1" as="geometry" />
        </mxCell>
        <mxCell id="yHE9qiVe5FLm9MRMypN1-5" value="ID" style="ellipse;whiteSpace=wrap;html=1;" vertex="1" parent="1">
          <mxGeometry x="590" y="30" width="120" height="80" as="geometry" />
        </mxCell>
        <mxCell id="yHE9qiVe5FLm9MRMypN1-27" style="edgeStyle=orthogonalEdgeStyle;rounded=0;orthogonalLoop=1;jettySize=auto;html=1;exitX=0;exitY=0.5;exitDx=0;exitDy=0;entryX=1;entryY=0.5;entryDx=0;entryDy=0;endArrow=none;endFill=0;" edge="1" parent="1" source="yHE9qiVe5FLm9MRMypN1-10" target="yHE9qiVe5FLm9MRMypN1-26">
          <mxGeometry relative="1" as="geometry" />
        </mxCell>
        <mxCell id="yHE9qiVe5FLm9MRMypN1-29" value="!" style="edgeLabel;html=1;align=center;verticalAlign=middle;resizable=0;points=[];" vertex="1" connectable="0" parent="yHE9qiVe5FLm9MRMypN1-27">
          <mxGeometry x="0.6769" y="-1" relative="1" as="geometry">
            <mxPoint as="offset" />
          </mxGeometry>
        </mxCell>
        <mxCell id="yHE9qiVe5FLm9MRMypN1-30" value="M" style="edgeLabel;html=1;align=center;verticalAlign=middle;resizable=0;points=[];" vertex="1" connectable="0" parent="yHE9qiVe5FLm9MRMypN1-27">
          <mxGeometry x="0.6923" y="-3" relative="1" as="geometry">
            <mxPoint as="offset" />
          </mxGeometry>
        </mxCell>
        <mxCell id="yHE9qiVe5FLm9MRMypN1-34" style="edgeStyle=orthogonalEdgeStyle;rounded=0;orthogonalLoop=1;jettySize=auto;html=1;exitX=1;exitY=0.5;exitDx=0;exitDy=0;entryX=0;entryY=0.5;entryDx=0;entryDy=0;endArrow=none;endFill=0;" edge="1" parent="1" source="yHE9qiVe5FLm9MRMypN1-10" target="yHE9qiVe5FLm9MRMypN1-33">
          <mxGeometry relative="1" as="geometry" />
        </mxCell>
        <mxCell id="yHE9qiVe5FLm9MRMypN1-39" value="M" style="edgeLabel;html=1;align=center;verticalAlign=middle;resizable=0;points=[];" vertex="1" connectable="0" parent="yHE9qiVe5FLm9MRMypN1-34">
          <mxGeometry x="0.4747" y="1" relative="1" as="geometry">
            <mxPoint as="offset" />
          </mxGeometry>
        </mxCell>
        <mxCell id="yHE9qiVe5FLm9MRMypN1-87" style="edgeStyle=orthogonalEdgeStyle;rounded=0;orthogonalLoop=1;jettySize=auto;html=1;exitX=0.25;exitY=0;exitDx=0;exitDy=0;entryX=1;entryY=0.5;entryDx=0;entryDy=0;endArrow=none;endFill=0;" edge="1" parent="1" source="yHE9qiVe5FLm9MRMypN1-10" target="yHE9qiVe5FLm9MRMypN1-85">
          <mxGeometry relative="1" as="geometry">
            <Array as="points">
              <mxPoint x="370" y="440" />
              <mxPoint x="270" y="440" />
              <mxPoint x="270" y="370" />
            </Array>
          </mxGeometry>
        </mxCell>
        <mxCell id="yHE9qiVe5FLm9MRMypN1-88" value="N" style="edgeLabel;html=1;align=center;verticalAlign=middle;resizable=0;points=[];" vertex="1" connectable="0" parent="yHE9qiVe5FLm9MRMypN1-87">
          <mxGeometry x="0.059" relative="1" as="geometry">
            <mxPoint as="offset" />
          </mxGeometry>
        </mxCell>
        <mxCell id="yHE9qiVe5FLm9MRMypN1-91" value="1" style="edgeStyle=orthogonalEdgeStyle;rounded=0;orthogonalLoop=1;jettySize=auto;html=1;exitX=0.75;exitY=0;exitDx=0;exitDy=0;entryX=0.5;entryY=1;entryDx=0;entryDy=0;endArrow=none;endFill=0;" edge="1" parent="1" source="yHE9qiVe5FLm9MRMypN1-10" target="yHE9qiVe5FLm9MRMypN1-50">
          <mxGeometry relative="1" as="geometry" />
        </mxCell>
        <mxCell id="yHE9qiVe5FLm9MRMypN1-10" value="Объявление" style="rounded=0;whiteSpace=wrap;html=1;" vertex="1" parent="1">
          <mxGeometry x="340" y="470" width="120" height="60" as="geometry" />
        </mxCell>
        <mxCell id="yHE9qiVe5FLm9MRMypN1-18" style="edgeStyle=orthogonalEdgeStyle;rounded=0;orthogonalLoop=1;jettySize=auto;html=1;exitX=0.5;exitY=0;exitDx=0;exitDy=0;entryX=0.5;entryY=1;entryDx=0;entryDy=0;endArrow=none;endFill=0;" edge="1" parent="1" source="yHE9qiVe5FLm9MRMypN1-11" target="yHE9qiVe5FLm9MRMypN1-10">
          <mxGeometry relative="1" as="geometry" />
        </mxCell>
        <mxCell id="yHE9qiVe5FLm9MRMypN1-11" value="Название" style="ellipse;whiteSpace=wrap;html=1;" vertex="1" parent="1">
          <mxGeometry x="100" y="680" width="120" height="80" as="geometry" />
        </mxCell>
        <mxCell id="yHE9qiVe5FLm9MRMypN1-19" style="edgeStyle=orthogonalEdgeStyle;rounded=0;orthogonalLoop=1;jettySize=auto;html=1;exitX=0.5;exitY=0;exitDx=0;exitDy=0;entryX=0.5;entryY=1;entryDx=0;entryDy=0;endArrow=none;endFill=0;" edge="1" parent="1" source="yHE9qiVe5FLm9MRMypN1-12" target="yHE9qiVe5FLm9MRMypN1-10">
          <mxGeometry relative="1" as="geometry" />
        </mxCell>
        <mxCell id="yHE9qiVe5FLm9MRMypN1-12" value="Дата создания" style="ellipse;whiteSpace=wrap;html=1;" vertex="1" parent="1">
          <mxGeometry x="260" y="680" width="120" height="80" as="geometry" />
        </mxCell>
        <mxCell id="yHE9qiVe5FLm9MRMypN1-20" style="edgeStyle=orthogonalEdgeStyle;rounded=0;orthogonalLoop=1;jettySize=auto;html=1;exitX=0.5;exitY=0;exitDx=0;exitDy=0;entryX=0.5;entryY=1;entryDx=0;entryDy=0;endArrow=none;endFill=0;" edge="1" parent="1" source="yHE9qiVe5FLm9MRMypN1-13" target="yHE9qiVe5FLm9MRMypN1-10">
          <mxGeometry relative="1" as="geometry" />
        </mxCell>
        <mxCell id="yHE9qiVe5FLm9MRMypN1-13" value="Стоимость" style="ellipse;whiteSpace=wrap;html=1;" vertex="1" parent="1">
          <mxGeometry x="420" y="680" width="120" height="80" as="geometry" />
        </mxCell>
        <mxCell id="yHE9qiVe5FLm9MRMypN1-21" style="edgeStyle=orthogonalEdgeStyle;rounded=0;orthogonalLoop=1;jettySize=auto;html=1;exitX=0.5;exitY=0;exitDx=0;exitDy=0;entryX=0.5;entryY=1;entryDx=0;entryDy=0;endArrow=none;endFill=0;" edge="1" parent="1" source="yHE9qiVe5FLm9MRMypN1-14" target="yHE9qiVe5FLm9MRMypN1-10">
          <mxGeometry relative="1" as="geometry" />
        </mxCell>
        <mxCell id="yHE9qiVe5FLm9MRMypN1-14" value="ID" style="ellipse;whiteSpace=wrap;html=1;" vertex="1" parent="1">
          <mxGeometry x="580" y="680" width="120" height="80" as="geometry" />
        </mxCell>
        <mxCell id="yHE9qiVe5FLm9MRMypN1-17" style="edgeStyle=orthogonalEdgeStyle;rounded=0;orthogonalLoop=1;jettySize=auto;html=1;exitX=0.5;exitY=1;exitDx=0;exitDy=0;entryX=0.5;entryY=0;entryDx=0;entryDy=0;endArrow=none;endFill=0;" edge="1" parent="1" source="yHE9qiVe5FLm9MRMypN1-15" target="yHE9qiVe5FLm9MRMypN1-10">
          <mxGeometry relative="1" as="geometry" />
        </mxCell>
        <mxCell id="yHE9qiVe5FLm9MRMypN1-22" value="N" style="edgeLabel;html=1;align=center;verticalAlign=middle;resizable=0;points=[];" vertex="1" connectable="0" parent="yHE9qiVe5FLm9MRMypN1-17">
          <mxGeometry x="0.0857" y="-1" relative="1" as="geometry">
            <mxPoint as="offset" />
          </mxGeometry>
        </mxCell>
        <mxCell id="yHE9qiVe5FLm9MRMypN1-15" value="Создал" style="rhombus;whiteSpace=wrap;html=1;" vertex="1" parent="1">
          <mxGeometry x="345" y="320" width="110" height="80" as="geometry" />
        </mxCell>
        <mxCell id="yHE9qiVe5FLm9MRMypN1-25" style="edgeStyle=orthogonalEdgeStyle;rounded=0;orthogonalLoop=1;jettySize=auto;html=1;exitX=0.5;exitY=1;exitDx=0;exitDy=0;entryX=0.5;entryY=0;entryDx=0;entryDy=0;endArrow=none;endFill=0;" edge="1" parent="1" source="yHE9qiVe5FLm9MRMypN1-23" target="yHE9qiVe5FLm9MRMypN1-24">
          <mxGeometry relative="1" as="geometry" />
        </mxCell>
        <mxCell id="yHE9qiVe5FLm9MRMypN1-38" style="edgeStyle=orthogonalEdgeStyle;rounded=0;orthogonalLoop=1;jettySize=auto;html=1;exitX=0.5;exitY=1;exitDx=0;exitDy=0;entryX=0.5;entryY=0;entryDx=0;entryDy=0;endArrow=none;endFill=0;" edge="1" parent="1" source="yHE9qiVe5FLm9MRMypN1-23" target="yHE9qiVe5FLm9MRMypN1-37">
          <mxGeometry relative="1" as="geometry" />
        </mxCell>
        <mxCell id="yHE9qiVe5FLm9MRMypN1-23" value="Тип объявления" style="rounded=0;whiteSpace=wrap;html=1;" vertex="1" parent="1">
          <mxGeometry x="-110" y="470" width="120" height="60" as="geometry" />
        </mxCell>
        <mxCell id="yHE9qiVe5FLm9MRMypN1-24" value="Название" style="ellipse;whiteSpace=wrap;html=1;" vertex="1" parent="1">
          <mxGeometry x="-110" y="570" width="120" height="80" as="geometry" />
        </mxCell>
        <mxCell id="yHE9qiVe5FLm9MRMypN1-28" value="N" style="edgeStyle=orthogonalEdgeStyle;rounded=0;orthogonalLoop=1;jettySize=auto;html=1;exitX=0;exitY=0.5;exitDx=0;exitDy=0;entryX=1;entryY=0.5;entryDx=0;entryDy=0;endArrow=none;endFill=0;" edge="1" parent="1" source="yHE9qiVe5FLm9MRMypN1-26" target="yHE9qiVe5FLm9MRMypN1-23">
          <mxGeometry relative="1" as="geometry" />
        </mxCell>
        <mxCell id="yHE9qiVe5FLm9MRMypN1-26" value="Относится" style="rhombus;whiteSpace=wrap;html=1;" vertex="1" parent="1">
          <mxGeometry x="100" y="460" width="110" height="80" as="geometry" />
        </mxCell>
        <mxCell id="yHE9qiVe5FLm9MRMypN1-42" style="edgeStyle=orthogonalEdgeStyle;rounded=0;orthogonalLoop=1;jettySize=auto;html=1;exitX=0.5;exitY=1;exitDx=0;exitDy=0;entryX=0.5;entryY=0;entryDx=0;entryDy=0;endArrow=none;endFill=0;" edge="1" parent="1" source="yHE9qiVe5FLm9MRMypN1-32" target="yHE9qiVe5FLm9MRMypN1-36">
          <mxGeometry relative="1" as="geometry" />
        </mxCell>
        <mxCell id="yHE9qiVe5FLm9MRMypN1-43" style="edgeStyle=orthogonalEdgeStyle;rounded=0;orthogonalLoop=1;jettySize=auto;html=1;exitX=0.5;exitY=1;exitDx=0;exitDy=0;entryX=0.5;entryY=0;entryDx=0;entryDy=0;endArrow=none;endFill=0;" edge="1" parent="1" source="yHE9qiVe5FLm9MRMypN1-32" target="yHE9qiVe5FLm9MRMypN1-41">
          <mxGeometry relative="1" as="geometry" />
        </mxCell>
        <mxCell id="yHE9qiVe5FLm9MRMypN1-32" value="Фотография" style="rounded=0;whiteSpace=wrap;html=1;" vertex="1" parent="1">
          <mxGeometry x="740" y="550" width="120" height="60" as="geometry" />
        </mxCell>
        <mxCell id="yHE9qiVe5FLm9MRMypN1-35" style="edgeStyle=orthogonalEdgeStyle;rounded=0;orthogonalLoop=1;jettySize=auto;html=1;exitX=1;exitY=0.5;exitDx=0;exitDy=0;entryX=0.5;entryY=0;entryDx=0;entryDy=0;endArrow=none;endFill=0;" edge="1" parent="1" source="yHE9qiVe5FLm9MRMypN1-33" target="yHE9qiVe5FLm9MRMypN1-32">
          <mxGeometry relative="1" as="geometry" />
        </mxCell>
        <mxCell id="yHE9qiVe5FLm9MRMypN1-40" value="N" style="edgeLabel;html=1;align=center;verticalAlign=middle;resizable=0;points=[];" vertex="1" connectable="0" parent="yHE9qiVe5FLm9MRMypN1-35">
          <mxGeometry x="-0.451" relative="1" as="geometry">
            <mxPoint as="offset" />
          </mxGeometry>
        </mxCell>
        <mxCell id="yHE9qiVe5FLm9MRMypN1-33" value="Содержит" style="rhombus;whiteSpace=wrap;html=1;" vertex="1" parent="1">
          <mxGeometry x="570" y="460" width="110" height="80" as="geometry" />
        </mxCell>
        <mxCell id="yHE9qiVe5FLm9MRMypN1-36" value="ID" style="ellipse;whiteSpace=wrap;html=1;" vertex="1" parent="1">
          <mxGeometry x="740" y="650" width="120" height="80" as="geometry" />
        </mxCell>
        <mxCell id="yHE9qiVe5FLm9MRMypN1-37" value="ID" style="ellipse;whiteSpace=wrap;html=1;" vertex="1" parent="1">
          <mxGeometry x="-250" y="570" width="120" height="80" as="geometry" />
        </mxCell>
        <mxCell id="yHE9qiVe5FLm9MRMypN1-41" value="URL" style="ellipse;whiteSpace=wrap;html=1;" vertex="1" parent="1">
          <mxGeometry x="900" y="650" width="120" height="80" as="geometry" />
        </mxCell>
        <mxCell id="yHE9qiVe5FLm9MRMypN1-44" value="Сообщение" style="rounded=0;whiteSpace=wrap;html=1;" vertex="1" parent="1">
          <mxGeometry x="930" y="290" width="120" height="60" as="geometry" />
        </mxCell>
        <mxCell id="yHE9qiVe5FLm9MRMypN1-49" style="edgeStyle=orthogonalEdgeStyle;rounded=0;orthogonalLoop=1;jettySize=auto;html=1;exitX=0.5;exitY=1;exitDx=0;exitDy=0;entryX=0.5;entryY=0;entryDx=0;entryDy=0;endArrow=none;endFill=0;" edge="1" parent="1" source="yHE9qiVe5FLm9MRMypN1-47" target="yHE9qiVe5FLm9MRMypN1-44">
          <mxGeometry relative="1" as="geometry" />
        </mxCell>
        <mxCell id="yHE9qiVe5FLm9MRMypN1-57" value="N" style="edgeLabel;html=1;align=center;verticalAlign=middle;resizable=0;points=[];" vertex="1" connectable="0" parent="yHE9qiVe5FLm9MRMypN1-49">
          <mxGeometry x="0.1043" y="1" relative="1" as="geometry">
            <mxPoint as="offset" />
          </mxGeometry>
        </mxCell>
        <mxCell id="yHE9qiVe5FLm9MRMypN1-47" value="Отправил&lt;div&gt;Получил&lt;/div&gt;" style="rhombus;whiteSpace=wrap;html=1;" vertex="1" parent="1">
          <mxGeometry x="935" y="160" width="110" height="80" as="geometry" />
        </mxCell>
        <mxCell id="yHE9qiVe5FLm9MRMypN1-89" style="edgeStyle=orthogonalEdgeStyle;rounded=0;orthogonalLoop=1;jettySize=auto;html=1;exitX=0.5;exitY=0;exitDx=0;exitDy=0;entryX=0.5;entryY=1;entryDx=0;entryDy=0;endArrow=none;endFill=0;" edge="1" parent="1" source="yHE9qiVe5FLm9MRMypN1-50" target="yHE9qiVe5FLm9MRMypN1-44">
          <mxGeometry relative="1" as="geometry" />
        </mxCell>
        <mxCell id="yHE9qiVe5FLm9MRMypN1-90" value="N" style="edgeLabel;html=1;align=center;verticalAlign=middle;resizable=0;points=[];" vertex="1" connectable="0" parent="yHE9qiVe5FLm9MRMypN1-89">
          <mxGeometry x="0.2444" y="2" relative="1" as="geometry">
            <mxPoint as="offset" />
          </mxGeometry>
        </mxCell>
        <mxCell id="yHE9qiVe5FLm9MRMypN1-50" value="Относится" style="rhombus;whiteSpace=wrap;html=1;" vertex="1" parent="1">
          <mxGeometry x="935" y="380" width="110" height="80" as="geometry" />
        </mxCell>
        <mxCell id="yHE9qiVe5FLm9MRMypN1-66" style="edgeStyle=orthogonalEdgeStyle;rounded=0;orthogonalLoop=1;jettySize=auto;html=1;exitX=0;exitY=0.5;exitDx=0;exitDy=0;entryX=1;entryY=0.5;entryDx=0;entryDy=0;endArrow=none;endFill=0;" edge="1" parent="1" source="yHE9qiVe5FLm9MRMypN1-60" target="yHE9qiVe5FLm9MRMypN1-44">
          <mxGeometry relative="1" as="geometry" />
        </mxCell>
        <mxCell id="yHE9qiVe5FLm9MRMypN1-60" value="Текст" style="ellipse;whiteSpace=wrap;html=1;" vertex="1" parent="1">
          <mxGeometry x="1155" y="380" width="120" height="80" as="geometry" />
        </mxCell>
        <mxCell id="yHE9qiVe5FLm9MRMypN1-62" style="edgeStyle=orthogonalEdgeStyle;rounded=0;orthogonalLoop=1;jettySize=auto;html=1;exitX=0;exitY=0.5;exitDx=0;exitDy=0;entryX=1;entryY=0.5;entryDx=0;entryDy=0;endArrow=none;endFill=0;" edge="1" parent="1" source="yHE9qiVe5FLm9MRMypN1-61" target="yHE9qiVe5FLm9MRMypN1-44">
          <mxGeometry relative="1" as="geometry" />
        </mxCell>
        <mxCell id="yHE9qiVe5FLm9MRMypN1-61" value="Дата" style="ellipse;whiteSpace=wrap;html=1;" vertex="1" parent="1">
          <mxGeometry x="1155" y="280" width="120" height="80" as="geometry" />
        </mxCell>
        <mxCell id="yHE9qiVe5FLm9MRMypN1-70" style="edgeStyle=orthogonalEdgeStyle;rounded=0;orthogonalLoop=1;jettySize=auto;html=1;exitX=0.5;exitY=1;exitDx=0;exitDy=0;entryX=0.5;entryY=0;entryDx=0;entryDy=0;endArrow=none;endFill=0;" edge="1" parent="1" source="yHE9qiVe5FLm9MRMypN1-67" target="yHE9qiVe5FLm9MRMypN1-68">
          <mxGeometry relative="1" as="geometry" />
        </mxCell>
        <mxCell id="yHE9qiVe5FLm9MRMypN1-71" value="N" style="edgeLabel;html=1;align=center;verticalAlign=middle;resizable=0;points=[];" vertex="1" connectable="0" parent="yHE9qiVe5FLm9MRMypN1-70">
          <mxGeometry x="-0.2667" relative="1" as="geometry">
            <mxPoint as="offset" />
          </mxGeometry>
        </mxCell>
        <mxCell id="yHE9qiVe5FLm9MRMypN1-74" style="edgeStyle=orthogonalEdgeStyle;rounded=0;orthogonalLoop=1;jettySize=auto;html=1;exitX=0.5;exitY=0;exitDx=0;exitDy=0;entryX=0.5;entryY=1;entryDx=0;entryDy=0;endArrow=none;endFill=0;" edge="1" parent="1" source="yHE9qiVe5FLm9MRMypN1-67" target="yHE9qiVe5FLm9MRMypN1-72">
          <mxGeometry relative="1" as="geometry" />
        </mxCell>
        <mxCell id="yHE9qiVe5FLm9MRMypN1-75" style="edgeStyle=orthogonalEdgeStyle;rounded=0;orthogonalLoop=1;jettySize=auto;html=1;exitX=0.5;exitY=0;exitDx=0;exitDy=0;entryX=0.5;entryY=1;entryDx=0;entryDy=0;endArrow=none;endFill=0;" edge="1" parent="1" source="yHE9qiVe5FLm9MRMypN1-67" target="yHE9qiVe5FLm9MRMypN1-73">
          <mxGeometry relative="1" as="geometry" />
        </mxCell>
        <mxCell id="yHE9qiVe5FLm9MRMypN1-81" style="edgeStyle=orthogonalEdgeStyle;rounded=0;orthogonalLoop=1;jettySize=auto;html=1;exitX=1;exitY=0.5;exitDx=0;exitDy=0;entryX=0;entryY=0.5;entryDx=0;entryDy=0;endArrow=none;endFill=0;" edge="1" parent="1" source="yHE9qiVe5FLm9MRMypN1-67" target="yHE9qiVe5FLm9MRMypN1-79">
          <mxGeometry relative="1" as="geometry" />
        </mxCell>
        <mxCell id="yHE9qiVe5FLm9MRMypN1-83" value="1" style="edgeLabel;html=1;align=center;verticalAlign=middle;resizable=0;points=[];" vertex="1" connectable="0" parent="yHE9qiVe5FLm9MRMypN1-81">
          <mxGeometry y="2" relative="1" as="geometry">
            <mxPoint as="offset" />
          </mxGeometry>
        </mxCell>
        <mxCell id="yHE9qiVe5FLm9MRMypN1-67" value="Тип параметра" style="rounded=0;whiteSpace=wrap;html=1;" vertex="1" parent="1">
          <mxGeometry x="-315" y="260" width="120" height="60" as="geometry" />
        </mxCell>
        <mxCell id="yHE9qiVe5FLm9MRMypN1-69" value="1" style="edgeStyle=orthogonalEdgeStyle;rounded=0;orthogonalLoop=1;jettySize=auto;html=1;exitX=0.5;exitY=1;exitDx=0;exitDy=0;entryX=0.5;entryY=0;entryDx=0;entryDy=0;endArrow=none;endFill=0;" edge="1" parent="1" source="yHE9qiVe5FLm9MRMypN1-68" target="yHE9qiVe5FLm9MRMypN1-23">
          <mxGeometry relative="1" as="geometry" />
        </mxCell>
        <mxCell id="yHE9qiVe5FLm9MRMypN1-68" value="Содержит" style="rhombus;whiteSpace=wrap;html=1;" vertex="1" parent="1">
          <mxGeometry x="-310" y="350" width="110" height="80" as="geometry" />
        </mxCell>
        <mxCell id="yHE9qiVe5FLm9MRMypN1-72" value="ID" style="ellipse;whiteSpace=wrap;html=1;" vertex="1" parent="1">
          <mxGeometry x="-450" y="130" width="120" height="80" as="geometry" />
        </mxCell>
        <mxCell id="yHE9qiVe5FLm9MRMypN1-73" value="Название" style="ellipse;whiteSpace=wrap;html=1;" vertex="1" parent="1">
          <mxGeometry x="-315" y="130" width="120" height="80" as="geometry" />
        </mxCell>
        <mxCell id="yHE9qiVe5FLm9MRMypN1-80" style="edgeStyle=orthogonalEdgeStyle;rounded=0;orthogonalLoop=1;jettySize=auto;html=1;exitX=0.5;exitY=0;exitDx=0;exitDy=0;entryX=0.5;entryY=1;entryDx=0;entryDy=0;endArrow=none;endFill=0;" edge="1" parent="1" source="yHE9qiVe5FLm9MRMypN1-76" target="yHE9qiVe5FLm9MRMypN1-77">
          <mxGeometry relative="1" as="geometry" />
        </mxCell>
        <mxCell id="yHE9qiVe5FLm9MRMypN1-76" value="Значение параметра" style="rounded=0;whiteSpace=wrap;html=1;" vertex="1" parent="1">
          <mxGeometry x="-20" y="260" width="120" height="60" as="geometry" />
        </mxCell>
        <mxCell id="yHE9qiVe5FLm9MRMypN1-77" value="Текст" style="ellipse;whiteSpace=wrap;html=1;" vertex="1" parent="1">
          <mxGeometry x="-20" y="140" width="120" height="80" as="geometry" />
        </mxCell>
        <mxCell id="yHE9qiVe5FLm9MRMypN1-82" style="edgeStyle=orthogonalEdgeStyle;rounded=0;orthogonalLoop=1;jettySize=auto;html=1;exitX=1;exitY=0.5;exitDx=0;exitDy=0;entryX=0;entryY=0.5;entryDx=0;entryDy=0;endArrow=none;endFill=0;" edge="1" parent="1" source="yHE9qiVe5FLm9MRMypN1-79" target="yHE9qiVe5FLm9MRMypN1-76">
          <mxGeometry relative="1" as="geometry" />
        </mxCell>
        <mxCell id="yHE9qiVe5FLm9MRMypN1-84" value="N" style="edgeLabel;html=1;align=center;verticalAlign=middle;resizable=0;points=[];" vertex="1" connectable="0" parent="yHE9qiVe5FLm9MRMypN1-82">
          <mxGeometry x="-0.3667" y="1" relative="1" as="geometry">
            <mxPoint x="1" as="offset" />
          </mxGeometry>
        </mxCell>
        <mxCell id="yHE9qiVe5FLm9MRMypN1-79" value="Содержит" style="rhombus;whiteSpace=wrap;html=1;" vertex="1" parent="1">
          <mxGeometry x="-160" y="250" width="110" height="80" as="geometry" />
        </mxCell>
        <mxCell id="yHE9qiVe5FLm9MRMypN1-86" value="M" style="edgeStyle=orthogonalEdgeStyle;rounded=0;orthogonalLoop=1;jettySize=auto;html=1;exitX=0;exitY=0.5;exitDx=0;exitDy=0;entryX=0.5;entryY=1;entryDx=0;entryDy=0;endArrow=none;endFill=0;" edge="1" parent="1" source="yHE9qiVe5FLm9MRMypN1-85" target="yHE9qiVe5FLm9MRMypN1-76">
          <mxGeometry relative="1" as="geometry" />
        </mxCell>
        <mxCell id="yHE9qiVe5FLm9MRMypN1-85" value="Относится" style="rhombus;whiteSpace=wrap;html=1;" vertex="1" parent="1">
          <mxGeometry x="120" y="330" width="110" height="80" as="geometry" />
        </mxCell>
        <mxCell id="yHE9qiVe5FLm9MRMypN1-100" style="edgeStyle=orthogonalEdgeStyle;rounded=0;orthogonalLoop=1;jettySize=auto;html=1;exitX=0.5;exitY=1;exitDx=0;exitDy=0;entryX=1;entryY=0.5;entryDx=0;entryDy=0;endArrow=none;endFill=0;" edge="1" parent="1" source="yHE9qiVe5FLm9MRMypN1-92" target="yHE9qiVe5FLm9MRMypN1-94">
          <mxGeometry relative="1" as="geometry" />
        </mxCell>
        <mxCell id="yHE9qiVe5FLm9MRMypN1-103" value="1" style="edgeLabel;html=1;align=center;verticalAlign=middle;resizable=0;points=[];" vertex="1" connectable="0" parent="yHE9qiVe5FLm9MRMypN1-100">
          <mxGeometry x="0.1849" y="1" relative="1" as="geometry">
            <mxPoint as="offset" />
          </mxGeometry>
        </mxCell>
        <mxCell id="yHE9qiVe5FLm9MRMypN1-92" value="Транзакция" style="rounded=0;whiteSpace=wrap;html=1;" vertex="1" parent="1">
          <mxGeometry x="620" y="290" width="120" height="60" as="geometry" />
        </mxCell>
        <mxCell id="yHE9qiVe5FLm9MRMypN1-101" style="edgeStyle=orthogonalEdgeStyle;rounded=0;orthogonalLoop=1;jettySize=auto;html=1;exitX=0;exitY=0.5;exitDx=0;exitDy=0;entryX=0.75;entryY=0;entryDx=0;entryDy=0;endArrow=none;endFill=0;" edge="1" parent="1" source="yHE9qiVe5FLm9MRMypN1-94" target="yHE9qiVe5FLm9MRMypN1-10">
          <mxGeometry relative="1" as="geometry" />
        </mxCell>
        <mxCell id="yHE9qiVe5FLm9MRMypN1-102" value="1" style="edgeLabel;html=1;align=center;verticalAlign=middle;resizable=0;points=[];" vertex="1" connectable="0" parent="yHE9qiVe5FLm9MRMypN1-101">
          <mxGeometry x="0.3827" relative="1" as="geometry">
            <mxPoint as="offset" />
          </mxGeometry>
        </mxCell>
        <mxCell id="yHE9qiVe5FLm9MRMypN1-94" value="Объект" style="rhombus;whiteSpace=wrap;html=1;" vertex="1" parent="1">
          <mxGeometry x="490" y="350" width="110" height="80" as="geometry" />
        </mxCell>
        <mxCell id="yHE9qiVe5FLm9MRMypN1-98" style="edgeStyle=orthogonalEdgeStyle;rounded=0;orthogonalLoop=1;jettySize=auto;html=1;exitX=1;exitY=0.5;exitDx=0;exitDy=0;entryX=0.5;entryY=0;entryDx=0;entryDy=0;endArrow=none;endFill=0;" edge="1" parent="1" source="yHE9qiVe5FLm9MRMypN1-95" target="yHE9qiVe5FLm9MRMypN1-92">
          <mxGeometry relative="1" as="geometry" />
        </mxCell>
        <mxCell id="yHE9qiVe5FLm9MRMypN1-99" value="N" style="edgeLabel;html=1;align=center;verticalAlign=middle;resizable=0;points=[];" vertex="1" connectable="0" parent="yHE9qiVe5FLm9MRMypN1-98">
          <mxGeometry x="0.3635" y="-2" relative="1" as="geometry">
            <mxPoint as="offset" />
          </mxGeometry>
        </mxCell>
        <mxCell id="yHE9qiVe5FLm9MRMypN1-95" value="Субъект&lt;br&gt;(Покупатель,&lt;br&gt;&lt;div&gt;Продавец)&lt;/div&gt;" style="rhombus;whiteSpace=wrap;html=1;" vertex="1" parent="1">
          <mxGeometry x="490" y="220" width="110" height="80" as="geometry" />
        </mxCell>
        <mxCell id="yHE9qiVe5FLm9MRMypN1-106" style="edgeStyle=orthogonalEdgeStyle;rounded=0;orthogonalLoop=1;jettySize=auto;html=1;exitX=0;exitY=0.5;exitDx=0;exitDy=0;entryX=1;entryY=0.5;entryDx=0;entryDy=0;endArrow=none;endFill=0;" edge="1" parent="1" source="yHE9qiVe5FLm9MRMypN1-104" target="yHE9qiVe5FLm9MRMypN1-92">
          <mxGeometry relative="1" as="geometry" />
        </mxCell>
        <mxCell id="yHE9qiVe5FLm9MRMypN1-104" value="ID" style="ellipse;whiteSpace=wrap;html=1;" vertex="1" parent="1">
          <mxGeometry x="780" y="230" width="120" height="80" as="geometry" />
        </mxCell>
        <mxCell id="yHE9qiVe5FLm9MRMypN1-107" style="edgeStyle=orthogonalEdgeStyle;rounded=0;orthogonalLoop=1;jettySize=auto;html=1;exitX=0;exitY=0.5;exitDx=0;exitDy=0;entryX=1;entryY=0.5;entryDx=0;entryDy=0;endArrow=none;endFill=0;" edge="1" parent="1" source="yHE9qiVe5FLm9MRMypN1-105" target="yHE9qiVe5FLm9MRMypN1-92">
          <mxGeometry relative="1" as="geometry" />
        </mxCell>
        <mxCell id="yHE9qiVe5FLm9MRMypN1-105" value="Дата" style="ellipse;whiteSpace=wrap;html=1;" vertex="1" parent="1">
          <mxGeometry x="780" y="340" width="120" height="80" as="geometry" />
        </mxCell>
      </root>
    </mxGraphModel>
  </diagram>
</mxfile>
